#!OML:ASF F:\VICON\USERDATA\INSTALL\rory3\rory3.ASF
:FULLY-SPECIFIED
:DEGREES
1559
root 4.07623 17.1334 -2.80602 184.025 -142.647 -174.4
lowerback 2.40229 3.45985 -4.02819
upperback 10.5832 4.28988 4.28801
thorax 9.26271 1.48333 7.06296
lowerneck -51.169 -19.4542 -21.5876
upperneck -16.7176 -13.389 12.6614
head 1.60139 -4.82542 5.88879
rclavicle 3.49861e-014 -3.33958e-014
rhumerus -9.68567 -11.4497 -70.2927
rradius 52.4124
rwrist 12.2613
rhand -23.2635 9.05606
rfingers 7.12502
rthumb 3.18868 -20.8998
lclavicle 3.49861e-014 -3.33958e-014
lhumerus 2.28688 -28.901 89.4058
lradius 69.5013
lwrist -6.04188
lhand -16.4048 14.6776
lfingers 7.12502
lthumb 9.80963 44.4291
rfemur -34.0958 -9.53177 18.3525
rtibia 58.9065
rfoot -16.6463 6.92015
rtoes 2.10865
lfemur -8.64672 4.61319 -28.5974
ltibia 30.92
lfoot -25.3554 5.62414
ltoes -10.8097
1560
root 4.09213 17.1392 -2.8737 183.903 -143.336 -173.87
lowerback 3.06492 3.73909 -4.39648
upperback 10.357 4.66511 4.26193
thorax 8.53983 1.68395 7.18126
lowerneck -49.5053 -20.5514 -23.3792
upperneck -17.8509 -14.168 14.1091
head 1.42471 -4.99525 6.5564
rclavicle -4.29375e-014 3.97569e-014
rhumerus -10.8478 -12.6021 -69.6651
rradius 52.2973
rwrist 12.1706
rhand -23.6429 8.67063
rfingers 7.12502
rthumb 2.82226 -21.2904
lclavicle -4.29375e-014 3.97569e-014
lhumerus 1.4339 -29.8573 89.7304
lradius 69.4557
lwrist -5.69104
lhand -16.3608 15.1208
lfingers 7.12502
lthumb 9.85205 44.8703
rfemur -35.2227 -9.74099 17.6795
rtibia 60.1658
rfoot -15.1056 7.3053
rtoes -0.662135
lfemur -9.2277 4.85751 -28.7776
ltibia 31.1672
lfoot -25.5469 4.02829
ltoes -10.0025
1561
root 4.10756 17.1446 -2.94106 183.921 -144.114 -173.624
lowerback 3.78139 3.97211 -4.45683
upperback 10.115 4.96059 4.26441
thorax 7.80197 1.87037 7.1424
lowerneck -48.0632 -21.4878 -24.9025
upperneck -18.6597 -14.8797 15.1305
head 1.32345 -5.18854 7.02501
rclavicle 2.54444e-014 4.29375e-014
rhumerus -11.9592 -13.8656 -69.1146
rradius 51.9512
rwrist 12.281
rhand -24.1267 8.70508
rfingers 7.12502
rthumb 2.35503 -21.2617
lclavicle 2.54444e-014 4.29375e-014
lhumerus 0.439707 -30.7515 90.0902
lradius 69.3841
lwrist -5.1706
lhand -16.579 15.3954
lfingers 7.12502
lthumb 9.6416 45.1547
rfemur -36.301 -9.9747 17.2458
rtibia 61.3632
rfoot -13.6867 7.62534
rtoes -2.74973
lfemur -9.73579 4.94622 -28.7113
ltibia 31.3228
lfoot -25.7209 2.88945
ltoes -10.3817
1562
root 4.12145 17.1545 -3.0002 184.066 -144.861 -173.651
lowerback 4.4986 4.20883 -4.27287
upperback 9.86031 5.25318 4.33412
thorax 7.0687 2.06933 7.03119
lowerneck -47.0269 -22.2261 -25.9875
upperneck -19.0213 -15.4946 15.4783
head 1.29284 -5.40899 7.18575
rclavicle 4.13472e-014 -1.59028e-014
rhumerus -13.14 -15.167 -68.5187
rradius 51.5364
rwrist 12.4638
rhand -24.5633 8.57602
rfingers 7.12502
rthumb 1.93336 -21.395
lclavicle 4.13472e-014 -1.59028e-014
lhumerus -0.614606 -31.6443 90.5135
lradius 69.2086
lwrist -4.67805
lhand -16.8911 15.4794
lfingers 7.12502
lthumb 9.34046 45.2524
rfemur -37.2295 -10.2319 17.0195
rtibia 62.4301
rfoot -12.4994 8.00034
rtoes -5.82813
lfemur -10.1463 4.98553 -28.4616
ltibia 31.3866
lfoot -25.4787 2.12952
ltoes -10.0548
1563
root 4.13231 17.1675 -3.0497 184.296 -145.442 -173.745
lowerback 5.07507 4.51326 -4.00204
upperback 9.58975 5.64519 4.40324
thorax 6.39846 2.31944 6.87361
lowerneck -46.1134 -22.9662 -26.9878
upperneck -19.1671 -16.1406 15.6502
head 1.32269 -5.66187 7.25261
rclavicle -6.04305e-014 9.54166e-015
rhumerus -14.4133 -16.4231 -67.837
rradius 51.123
rwrist 12.4024
rhand -25.0014 8.29216
rfingers 7.12502
rthumb 1.51023 -21.6822
lclavicle -6.04305e-014 9.54166e-015
lhumerus -1.69264 -32.5983 90.9563
lradius 68.9705
lwrist -4.06711
lhand -16.9446 15.3844
lfingers 7.12502
lthumb 9.28881 45.1597
rfemur -38.1293 -10.2772 16.7934
rtibia 63.3235
rfoot -11.7077 8.31912
rtoes -11.714
lfemur -10.5426 4.96528 -28.2286
ltibia 31.4179
lfoot -25.056 1.28108
ltoes -8.04428
1564
root 4.14045 17.187 -3.08663 184.529 -145.891 -173.906
lowerback 5.58438 4.81824 -3.52846
upperback 9.32868 6.04781 4.41068
thorax 5.80777 2.58327 6.53664
lowerneck -45.2525 -23.6109 -27.8131
upperneck -19.2538 -16.7617 15.6641
head 1.35044 -5.92531 7.23907
rclavicle -1.27222e-014 4.77083e-015
rhumerus -15.7878 -17.5361 -67.1853
rradius 50.7328
rwrist 12.2643
rhand -25.4243 8.14529
rfingers 7.12502
rthumb 1.10182 -21.8316
lclavicle -1.27222e-014 4.77083e-015
lhumerus -2.86581 -33.4317 91.3931
lradius 68.7507
lwrist -3.61068
lhand -16.6857 15.6991
lfingers 7.12502
lthumb 9.5386 45.4632
rfemur -38.9051 -10.1317 16.5564
rtibia 64.0331
rfoot -11.1972 8.63551
rtoes -16.259
lfemur -10.8109 4.99066 -28.0009
ltibia 31.3754
lfoot -24.7634 0.951232
ltoes -7.9963
1565
root 4.14682 17.2011 -3.10978 184.671 -146.2 -174.051
lowerback 6.07802 5.12248 -2.95297
upperback 9.05305 6.46004 4.35576
thorax 5.23785 2.85482 6.07252
lowerneck -44.4054 -24.2137 -28.6399
upperneck -19.1442 -17.3451 15.7049
head 1.45035 -6.17346 7.2311
rclavicle -1.98785e-014 -3.49861e-014
rhumerus -17.2718 -18.6435 -66.5659
rradius 50.3508
rwrist 12.2184
rhand -25.5994 8.1228
rfingers 7.12502
rthumb 0.932658 -21.8549
lclavicle -1.98785e-014 -3.49861e-014
lhumerus -4.21147 -34.1891 91.9078
lradius 68.4651
lwrist -3.24922
lhand -16.6743 16.035
lfingers 7.12502
lthumb 9.5496 45.7986
rfemur -39.4679 -9.9005 16.2722
rtibia 64.5542
rfoot -10.6117 9.20117
rtoes -17.0482
lfemur -10.8787 4.98171 -27.8425
ltibia 31.2213
lfoot -24.5382 1.15689
ltoes -9.02908
1566
root 4.15198 17.212 -3.11921 184.721 -146.314 -174.064
lowerback 6.39834 5.47988 -2.42368
upperback 8.82799 6.95188 4.24994
thorax 4.82564 3.15392 5.59567
lowerneck -43.5134 -24.8581 -29.6269
upperneck -19 -17.9339 15.9503
head 1.59591 -6.40382 7.30987
rclavicle -2.54444e-014 2.06736e-014
rhumerus -18.7743 -19.816 -65.9091
rradius 50.0339
rwrist 12.1733
rhand -25.6606 8.09813
rfingers 7.12502
rthumb 0.873562 -21.8798
lclavicle -2.54444e-014 2.06736e-014
lhumerus -5.68727 -34.9512 92.5617
lradius 68.1666
lwrist -2.65594
lhand -16.8074 16.2552
lfingers 7.12502
lthumb 9.42119 46.0246
rfemur -39.9085 -9.55592 15.8074
rtibia 64.8942
rfoot -10.1923 10.0771
rtoes -15.3496
lfemur -10.8075 4.72225 -27.8776
ltibia 30.9555
lfoot -24.5608 1.78056
ltoes -9.92822
1567
root 4.15313 17.2298 -3.12009 184.84 -146.275 -174.221
lowerback 6.658 5.88411 -1.77359
upperback 8.61474 7.51209 4.15682
thorax 4.48087 3.4868 5.06873
lowerneck -42.4995 -25.4297 -30.6642
upperneck -19.0121 -18.4704 16.2361
head 1.68465 -6.60466 7.42474
rclavicle -1.00187e-013 -1.74931e-014
rhumerus -20.2892 -20.9397 -65.2637
rradius 49.7622
rwrist 12.0829
rhand -25.5286 7.8756
rfingers 7.12502
rthumb 1.00105 -22.1018
lclavicle -1.00187e-013 -1.74931e-014
lhumerus -7.28386 -35.7671 93.2096
lradius 67.9358
lwrist -2.01383
lhand -17.0704 16.258
lfingers 7.12502
lthumb 9.16741 46.0387
rfemur -40.2759 -8.97878 15.4042
rtibia 65.046
rfoot -10.4258 10.4927
rtoes -14.2017
lfemur -10.6748 4.40668 -27.8057
ltibia 30.6402
lfoot -24.8172 2.60058
ltoes -11.2743
1568
root 4.14997 17.245 -3.12051 184.89 -146.154 -174.27
lowerback 7.07142 6.28578 -1.32752
upperback 8.28714 8.07132 4.03083
thorax 3.92518 3.81268 4.58978
lowerneck -41.5625 -25.7584 -31.3451
upperneck -18.9351 -18.8688 16.1843
head 1.7365 -6.78523 7.40059
rclavicle -4.45278e-014 -2.8625e-014
rhumerus -21.992 -21.8081 -64.635
rradius 49.6185
rwrist 11.8777
rhand -25.126 7.15784
rfingers 7.12502
rthumb 1.38983 -22.8174
lclavicle -4.45278e-014 -2.8625e-014
lhumerus -9.11266 -36.3922 93.8969
lradius 67.7791
lwrist -1.6743
lhand -17.2137 16.3297
lfingers 7.12502
lthumb 9.02911 46.1165
rfemur -40.6351 -8.20307 14.8764
rtibia 65.0398
rfoot -11.3982 10.0041
rtoes -16.1573
lfemur -10.4922 4.27025 -27.8076
ltibia 30.2468
lfoot -24.8558 3.12556
ltoes -12.1722
1569
root 4.14395 17.2599 -3.12017 185.063 -146.053 -174.429
lowerback 7.44245 6.68576 -0.886461
upperback 7.90531 8.63328 3.95622
thorax 3.34238 4.13461 4.16226
lowerneck -40.7185 -26.0758 -31.9196
upperneck -18.6983 -19.2835 16.0271
head 1.83225 -6.9901 7.31379
rclavicle 1.90833e-014 2.22639e-014
rhumerus -23.6961 -22.6973 -63.9416
rradius 49.3833
rwrist 11.8552
rhand -24.5845 6.54681
rfingers 7.12502
rthumb 1.91289 -23.4244
lclavicle 1.90833e-014 2.22639e-014
lhumerus -10.9587 -36.8445 94.6932
lradius 67.5465
lwrist -1.62997
lhand -16.7598 16.5219
lfingers 7.12502
lthumb 9.46713 46.2893
rfemur -40.9994 -7.41085 14.484
rtibia 64.8623
rfoot -12.6378 8.86022
rtoes -19.1214
lfemur -10.3389 3.99495 -27.699
ltibia 29.7628
lfoot -24.5776 3.33508
ltoes -11.2317
1570
root 4.13706 17.2769 -3.11764 184.955 -146.38 -174.456
lowerback 7.99111 6.95901 -0.405776
upperback 7.6129 9.03017 3.88725
thorax 2.78675 4.3682 3.71163
lowerneck -39.823 -26.4767 -32.6966
upperneck -18.5234 -19.739 16.0754
head 1.94331 -7.18926 7.31606
rclavicle -7.31528e-014 6.36111e-014
rhumerus -25.2912 -23.7054 -63.1851
rradius 49.0982
rwrist 11.9262
rhand -24.2359 6.45245
rfingers 7.12502
rthumb 2.24952 -23.5154
lclavicle -7.31528e-014 6.36111e-014
lhumerus -12.7331 -37.2569 95.5194
lradius 67.2373
lwrist -1.69396
lhand -16.3508 16.6239
lfingers 7.12502
lthumb 9.86175 46.373
rfemur -40.9625 -7.05479 13.9857
rtibia 64.5464
rfoot -13.9101 7.27493
rtoes -21.8483
lfemur -9.92836 3.31916 -27.654
ltibia 29.2684
lfoot -24.24 3.43671
ltoes -9.56326
1571
root 4.13008 17.298 -3.1066 184.644 -147.271 -174.389
lowerback 8.68642 7.016 0.195273
upperback 7.29625 9.15718 3.80486
thorax 2.17196 4.4669 3.18018
lowerneck -38.5793 -26.8154 -33.7168
upperneck -18.5884 -20.1617 16.4234
head 2.00938 -7.34819 7.47228
rclavicle -1.10524e-013 2.54444e-014
rhumerus -26.9466 -24.6772 -62.4021
rradius 48.7981
rwrist 12.0355
rhand -23.975 6.8172
rfingers 7.12502
rthumb 2.50153 -23.1479
lclavicle -1.10524e-013 2.54444e-014
lhumerus -14.6912 -37.7719 96.3917
lradius 66.9697
lwrist -1.63092
lhand -16.4121 16.5363
lfingers 7.12502
lthumb 9.8026 46.2881
rfemur -40.5235 -7.09363 13.3555
rtibia 64.0734
rfoot -15.0878 5.61945
rtoes -21.8684
lfemur -9.30088 2.23103 -27.638
ltibia 28.7571
lfoot -23.9121 3.4654
ltoes -8.17268
1572
root 4.1172 17.3137 -3.10273 184.702 -147.255 -174.344
lowerback 9.13757 7.3755 0.473563
upperback 6.84278 9.67737 3.66027
thorax 1.49494 4.74846 2.74162
lowerneck -37.3266 -27.0344 -34.514
upperneck -18.7171 -20.5607 16.6182
head 2.02419 -7.51979 7.5582
rclavicle -2.8625e-014 -3.49861e-014
rhumerus -28.7172 -25.4045 -61.6584
rradius 48.6234
rwrist 12.1109
rhand -24.0191 6.92299
rfingers 7.12502
rthumb 2.4589 -23.0426
lclavicle -2.8625e-014 -3.49861e-014
lhumerus -16.8359 -38.2173 97.3104
lradius 66.7808
lwrist -1.30064
lhand -16.4936 16.4583
lfingers 7.12502
lthumb 9.7239 46.2138
rfemur -40.6863 -6.31482 12.7345
rtibia 63.474
rfoot -15.9017 4.28205
rtoes -18.8109
lfemur -9.08736 1.82713 -27.699
ltibia 28.2346
lfoot -23.6059 3.96178
ltoes -8.6212
